<svg width="67" height="13" viewBox="0 0 67 13" fill="none" xmlns="http://www.w3.org/2000/svg">
<path d="M13.09 4.784C12.9407 4.94267 12.7073 5.18067 12.39 5.498L12.348 5.54C11.5173 6.352 10.892 6.95867 10.472 7.36C10.3413 7.49067 10.2433 7.59333 10.178 7.668C10.1407 7.70533 10.122 7.76133 10.122 7.836L10.836 11.98V12.008C10.8267 12.0173 10.78 11.9987 10.696 11.952C10.528 11.868 10.2853 11.742 9.968 11.574L7.07 10.048C7.00467 10.0107 6.93467 10.0153 6.86 10.062L5.432 10.818C4.46133 11.3313 3.72867 11.714 3.234 11.966C3.21533 11.9847 3.19667 11.994 3.178 11.994C3.13133 12.0127 3.11733 11.9753 3.136 11.882L3.29 10.916C3.53267 9.53467 3.71 8.49867 3.822 7.808C3.83133 7.78933 3.82667 7.766 3.808 7.738C3.79867 7.70067 3.78467 7.67267 3.766 7.654L3.29 7.192C2.66467 6.58533 2.198 6.12333 1.89 5.806C1.60067 5.526 1.274 5.18067 0.91 4.77C0.882 4.742 0.872667 4.71867 0.882 4.7C0.891333 4.672 0.914667 4.65333 0.952 4.644L4.312 4.154C4.57333 4.10733 4.76933 4.07933 4.9 4.07C4.956 4.06067 4.998 4.04667 5.026 4.028C5.054 4.00933 5.082 3.972 5.11 3.916C5.894 2.31067 6.48667 1.10667 6.888 0.303999L6.93 0.233999C6.93933 0.215333 6.95333 0.206 6.972 0.206C6.99067 0.196666 7.00467 0.201333 7.014 0.219999C7.03267 0.238666 7.042 0.257333 7.042 0.276L8.848 3.93C8.88533 4.014 8.95067 4.06067 9.044 4.07L13.048 4.658C13.0853 4.658 13.1087 4.672 13.118 4.7C13.1273 4.71867 13.118 4.74667 13.09 4.784ZM27.09 4.784C26.9407 4.94267 26.7073 5.18067 26.39 5.498L26.348 5.54C25.5173 6.352 24.892 6.95867 24.472 7.36C24.3413 7.49067 24.2433 7.59333 24.178 7.668C24.1407 7.70533 24.122 7.76133 24.122 7.836L24.836 11.98V12.008C24.8267 12.0173 24.78 11.9987 24.696 11.952C24.528 11.868 24.2853 11.742 23.968 11.574L21.07 10.048C21.0047 10.0107 20.9347 10.0153 20.86 10.062L19.432 10.818C18.4613 11.3313 17.7287 11.714 17.234 11.966C17.2153 11.9847 17.1967 11.994 17.178 11.994C17.1313 12.0127 17.1173 11.9753 17.136 11.882L17.29 10.916C17.5327 9.53467 17.71 8.49867 17.822 7.808C17.8313 7.78933 17.8267 7.766 17.808 7.738C17.7987 7.70067 17.7847 7.67267 17.766 7.654L17.29 7.192C16.6647 6.58533 16.198 6.12333 15.89 5.806C15.6007 5.526 15.274 5.18067 14.91 4.77C14.882 4.742 14.8727 4.71867 14.882 4.7C14.8913 4.672 14.9147 4.65333 14.952 4.644L18.312 4.154C18.5733 4.10733 18.7693 4.07933 18.9 4.07C18.956 4.06067 18.998 4.04667 19.026 4.028C19.054 4.00933 19.082 3.972 19.11 3.916C19.894 2.31067 20.4867 1.10667 20.888 0.303999L20.93 0.233999C20.9393 0.215333 20.9533 0.206 20.972 0.206C20.9907 0.196666 21.0047 0.201333 21.014 0.219999C21.0327 0.238666 21.042 0.257333 21.042 0.276L22.848 3.93C22.8853 4.014 22.9507 4.06067 23.044 4.07L27.048 4.658C27.0853 4.658 27.1087 4.672 27.118 4.7C27.1273 4.71867 27.118 4.74667 27.09 4.784ZM41.09 4.784C40.9407 4.94267 40.7073 5.18067 40.39 5.498L40.348 5.54C39.5173 6.352 38.892 6.95867 38.472 7.36C38.3413 7.49067 38.2433 7.59333 38.178 7.668C38.1407 7.70533 38.122 7.76133 38.122 7.836L38.836 11.98V12.008C38.8267 12.0173 38.78 11.9987 38.696 11.952C38.528 11.868 38.2853 11.742 37.968 11.574L35.07 10.048C35.0047 10.0107 34.9347 10.0153 34.86 10.062L33.432 10.818C32.4613 11.3313 31.7287 11.714 31.234 11.966C31.2153 11.9847 31.1967 11.994 31.178 11.994C31.1313 12.0127 31.1173 11.9753 31.136 11.882L31.29 10.916C31.5327 9.53467 31.71 8.49867 31.822 7.808C31.8313 7.78933 31.8267 7.766 31.808 7.738C31.7987 7.70067 31.7847 7.67267 31.766 7.654L31.29 7.192C30.6647 6.58533 30.198 6.12333 29.89 5.806C29.6007 5.526 29.274 5.18067 28.91 4.77C28.882 4.742 28.8727 4.71867 28.882 4.7C28.8913 4.672 28.9147 4.65333 28.952 4.644L32.312 4.154C32.5733 4.10733 32.7693 4.07933 32.9 4.07C32.956 4.06067 32.998 4.04667 33.026 4.028C33.054 4.00933 33.082 3.972 33.11 3.916C33.894 2.31067 34.4867 1.10667 34.888 0.303999L34.93 0.233999C34.9393 0.215333 34.9533 0.206 34.972 0.206C34.9907 0.196666 35.0047 0.201333 35.014 0.219999C35.0327 0.238666 35.042 0.257333 35.042 0.276L36.848 3.93C36.8853 4.014 36.9507 4.06067 37.044 4.07L41.048 4.658C41.0853 4.658 41.1087 4.672 41.118 4.7C41.1273 4.71867 41.118 4.74667 41.09 4.784ZM55.09 4.784C54.9407 4.94267 54.7073 5.18067 54.39 5.498L54.348 5.54C53.5173 6.352 52.892 6.95867 52.472 7.36C52.3413 7.49067 52.2433 7.59333 52.178 7.668C52.1407 7.70533 52.122 7.76133 52.122 7.836L52.836 11.98V12.008C52.8267 12.0173 52.78 11.9987 52.696 11.952C52.528 11.868 52.2853 11.742 51.968 11.574L49.07 10.048C49.0047 10.0107 48.9347 10.0153 48.86 10.062L47.432 10.818C46.4613 11.3313 45.7287 11.714 45.234 11.966C45.2153 11.9847 45.1967 11.994 45.178 11.994C45.1313 12.0127 45.1173 11.9753 45.136 11.882L45.29 10.916C45.5327 9.53467 45.71 8.49867 45.822 7.808C45.8313 7.78933 45.8267 7.766 45.808 7.738C45.7987 7.70067 45.7847 7.67267 45.766 7.654L45.29 7.192C44.6647 6.58533 44.198 6.12333 43.89 5.806C43.6007 5.526 43.274 5.18067 42.91 4.77C42.882 4.742 42.8727 4.71867 42.882 4.7C42.8913 4.672 42.9147 4.65333 42.952 4.644L46.312 4.154C46.5733 4.10733 46.7693 4.07933 46.9 4.07C46.956 4.06067 46.998 4.04667 47.026 4.028C47.054 4.00933 47.082 3.972 47.11 3.916C47.894 2.31067 48.4867 1.10667 48.888 0.303999L48.93 0.233999C48.9393 0.215333 48.9533 0.206 48.972 0.206C48.9907 0.196666 49.0047 0.201333 49.014 0.219999C49.0327 0.238666 49.042 0.257333 49.042 0.276L50.848 3.93C50.8853 4.014 50.9507 4.06067 51.044 4.07L55.048 4.658C55.0853 4.658 55.1087 4.672 55.118 4.7C55.1273 4.71867 55.118 4.74667 55.09 4.784ZM69.09 4.784C68.9407 4.94267 68.7073 5.18067 68.39 5.498L68.348 5.54C67.5173 6.352 66.892 6.95867 66.472 7.36C66.3413 7.49067 66.2433 7.59333 66.178 7.668C66.1407 7.70533 66.122 7.76133 66.122 7.836L66.836 11.98V12.008C66.8267 12.0173 66.78 11.9987 66.696 11.952C66.528 11.868 66.2853 11.742 65.968 11.574L63.07 10.048C63.0047 10.0107 62.9347 10.0153 62.86 10.062L61.432 10.818C60.4613 11.3313 59.7287 11.714 59.234 11.966C59.2153 11.9847 59.1967 11.994 59.178 11.994C59.1313 12.0127 59.1173 11.9753 59.136 11.882L59.29 10.916C59.5327 9.53467 59.71 8.49867 59.822 7.808C59.8313 7.78933 59.8267 7.766 59.808 7.738C59.7987 7.70067 59.7847 7.67267 59.766 7.654L59.29 7.192C58.6647 6.58533 58.198 6.12333 57.89 5.806C57.6007 5.526 57.274 5.18067 56.91 4.77C56.882 4.742 56.8727 4.71867 56.882 4.7C56.8913 4.672 56.9147 4.65333 56.952 4.644L60.312 4.154C60.5733 4.10733 60.7693 4.07933 60.9 4.07C60.956 4.06067 60.998 4.04667 61.026 4.028C61.054 4.00933 61.082 3.972 61.11 3.916C61.894 2.31067 62.4867 1.10667 62.888 0.303999L62.93 0.233999C62.9393 0.215333 62.9533 0.206 62.972 0.206C62.9907 0.196666 63.0047 0.201333 63.014 0.219999C63.0327 0.238666 63.042 0.257333 63.042 0.276L64.848 3.93C64.8853 4.014 64.9507 4.06067 65.044 4.07L69.048 4.658C69.0853 4.658 69.1087 4.672 69.118 4.7C69.1273 4.71867 69.118 4.74667 69.09 4.784Z" fill="#FF9000"/>
</svg>
